<?xml version="1.0" encoding="UTF-8"?>
<svg fill="none" viewBox="0 0 227 226" xmlns="http://www.w3.org/2000/svg">
<g opacity=".401" stroke-linecap="round" stroke-linejoin="round" stroke-width="2">
<path d="m24.496 134.74v44.289m73.674 6.813-57.916-57.916m140.53 73.673h-44.289m-6.812-162.25 57.916 57.916m-140.53-73.672h44.29m111.15 111.15v44.289" stroke="#B2B2B2"/>
<g clip-rule="evenodd" stroke="#1A1A1A">
<path d="m46.585 23.338c0 12.324-9.996 22.315-22.33 22.315-12.331 0-22.33-9.991-22.33-22.315 0-12.323 9.999-22.315 22.33-22.315 12.334 0 22.33 9.992 22.33 22.315zm89.316 0c0 12.324-9.995 22.315-22.329 22.315-12.332 0-22.33-9.991-22.33-22.315 0-12.323 9.998-22.315 22.33-22.315 12.334 0 22.329 9.992 22.329 22.315zm89.316 0c0 12.324-9.995 22.315-22.329 22.315-12.331 0-22.329-9.991-22.329-22.315 0-12.323 9.998-22.315 22.329-22.315 12.334 0 22.329 9.992 22.329 22.315zm-178.63 89.26c0 12.323-9.996 22.315-22.33 22.315-12.331 0-22.33-9.992-22.33-22.315s9.999-22.315 22.33-22.315c12.334 0 22.33 9.992 22.33 22.315zm89.316 0c0 12.323-9.995 22.315-22.329 22.315-12.332 0-22.33-9.992-22.33-22.315s9.998-22.315 22.33-22.315c12.334 0 22.329 9.992 22.329 22.315zm89.316 0c0 12.323-9.995 22.315-22.329 22.315-12.331 0-22.329-9.992-22.329-22.315s9.998-22.315 22.329-22.315c12.334 0 22.329 9.992 22.329 22.315zm-178.63 89.259c0 12.324-9.996 22.315-22.33 22.315-12.331 0-22.33-9.991-22.33-22.315 0-12.323 9.999-22.315 22.33-22.315 12.334 0 22.33 9.992 22.33 22.315zm89.316 0c0 12.324-9.995 22.315-22.329 22.315-12.332 0-22.33-9.991-22.33-22.315 0-12.323 9.998-22.315 22.33-22.315 12.334 0 22.329 9.992 22.329 22.315zm89.316 0c0 12.324-9.995 22.315-22.329 22.315-12.331 0-22.329-9.991-22.329-22.315 0-12.323 9.998-22.315 22.329-22.315 12.334 0 22.329 9.992 22.329 22.315z"/>
</g>
</g>
</svg>
